<svg aria-hidden="true" style="position: absolute; width: 0; height: 0; overflow: hidden;" version="1.1"
    xmlns="http://www.w3.org/2000/svg" xmlns:xlink="http://www.w3.org/1999/xlink">
    <defs>
        <symbol id="icon-building-blue" viewBox="0 0 36 32">
            <path fill="#d1e7ff"
                d="M32.691 11.842v17.492c0 1.178-1.022 2.133-2.281 2.133h-25.084c-1.259 0-2.28-0.956-2.28-2.133 0-16.537-0.001-13.439 0.005-17.492h29.64z">
            </path>
            <path fill="#b9dcff"
                d="M32.691 11.842v4.039c0 0.875-0.749 1.599-1.684 1.603h-26.279c-0.933-0.004-1.683-0.729-1.683-1.603 0-1.165 0-0.361 0.005-4.039h29.64z">
            </path>
            <path fill="#e8f3ff"
                d="M23.64 21.933v9.533h-11.544v-9.533c0-1.178 1.021-2.133 2.28-2.133h6.984c1.259 0 2.28 0.956 2.28 2.133z">
            </path>
            <path fill="#b9dcff"
                d="M34.4 11.842c0 2.133-1.849 3.867-4.133 3.867-2.282 0-4.132-1.732-4.132-3.867 0 2.135-1.851 3.867-4.133 3.867s-4.133-1.732-4.133-3.867c0 2.135-1.85 3.867-4.133 3.867-2.282 0-4.133-1.732-4.133-3.867-0.003 2.121-1.869 3.867-4.132 3.867-2.26 0-4.13-1.744-4.133-3.867 0-3.361-0.009-3.154 0.025-3.308 0.035-0.151-0.203 0.385 3.383-7.357 0.181-0.39 0.592-0.643 1.046-0.643h24.157c0.453 0 0.865 0.252 1.046 0.643 3.588 7.748 3.348 7.206 3.383 7.357 0.035 0.154 0.025-0.056 0.025 3.308z">
            </path>
            <path fill="#b9dcff"
                d="M34.4 11.842c0 2.133-1.849 3.867-4.133 3.867-2.282 0-4.132-1.732-4.132-3.867 0 2.135-1.851 3.867-4.133 3.867s-4.133-1.732-4.133-3.867c0 2.135-1.851 3.867-4.133 3.867s-4.133-1.732-4.133-3.867c-0.003 2.121-1.869 3.867-4.132 3.867-2.26 0-4.13-1.744-4.133-3.867-0.005-3.38-0.004-3.177 0.025-3.308h33.016c0.035 0.154 0.025-0.056 0.025 3.308z">
            </path>
            <path fill="#fff"
                d="M29.639 3.383c-7.239-0.932-14.544 0.264-20.453 4.428-0.64 0.452-1.437 0.722-2.296 0.722-0.004 0-0.009 0-0.013-0h-5.517c0.035-0.151-0.203 0.385 3.383-7.357 0.181-0.39 0.592-0.643 1.046-0.643h24.157c0.454 0 0.866 0.252 1.046 0.643l0.159 0.342c0.444 0.961-0.404 2.008-1.513 1.865z">
            </path>
            <path fill="#007ffc"
                d="M33.26 18.067v11.267c0 1.47-1.278 2.667-2.851 2.667h-25.084c-1.572 0-2.85-1.196-2.85-2.667v-11.267c0-0.294 0.255-0.533 0.57-0.533s0.571 0.239 0.571 0.533v11.267c0 0.882 0.767 1.6 1.71 1.6h6.199v-9c0-1.47 1.279-2.667 2.851-2.667h6.984c1.572 0 2.85 1.196 2.85 2.667v6.867c0 0.294-0.255 0.533-0.569 0.533-0.316 0-0.571-0.239-0.571-0.533v-6.867c0-0.882-0.767-1.6-1.71-1.6h-6.984c-0.942 0-1.71 0.718-1.71 1.6v9h4.632v-8.4c0-0.294 0.255-0.533 0.57-0.533s0.571 0.239 0.571 0.533v8.4h11.971c0.943 0 1.71-0.717 1.71-1.6v-11.267c0-0.294 0.256-0.533 0.571-0.533s0.57 0.239 0.57 0.533zM4.471 8.533c0 0.294 0.255 0.533 0.57 0.533 31.018 0 29.48 0.052 29.707-0.111 0.114-0.081 0.194-0.204 0.217-0.345l0-0.003c0.032-0.214 0.236 0.313-3.747-8.286-0.095-0.192-0.29-0.321-0.514-0.321-0.003 0-0.006 0-0.009 0h-25.655c-0.003-0-0.006-0-0.009-0-0.225 0-0.419 0.129-0.513 0.318l-0.002 0.003-3.705 8c-0.065 0.142-0.047-0.083-0.047 3.521 0.004 2.427 2.114 4.4 4.702 4.4 1.78 0 3.334-0.933 4.133-2.304 1.783 3.066 6.48 3.069 8.267 0.002 1.786 3.065 6.481 3.066 8.267 0 0.798 1.37 2.351 2.302 4.133 2.302 2.593 0 4.703-1.974 4.703-4.4 0-0.295-0.255-0.533-0.57-0.533s-0.571 0.238-0.571 0.533c0 1.837-1.598 3.333-3.563 3.333s-3.564-1.496-3.564-3.333c0-0.295-0.255-0.533-0.57-0.533s-0.57 0.238-0.57 0.533c0 1.837-1.599 3.333-3.564 3.333s-3.563-1.496-3.563-3.333c0-0.295-0.255-0.533-0.571-0.533s-0.57 0.238-0.57 0.533c0 1.837-1.598 3.333-3.564 3.333-1.92 0-3.563-1.444-3.563-3.36 0-0.295-0.255-0.533-0.57-0.533s-0.571 0.238-0.571 0.533c0 1.899-1.631 3.36-3.563 3.36-1.962 0-3.56-1.496-3.564-3.333v-3.199l3.511-7.576h24.906l3.212 6.933h-28.492c-0.315 0-0.57 0.239-0.57 0.533z">
            </path>
        </symbol>
        <symbol id="icon-building-green" viewBox="0 0 36 32">
            <path fill="#e1f4f5"
                d="M32.691 11.842v17.492c0 1.178-1.022 2.133-2.281 2.133h-25.084c-1.259 0-2.28-0.956-2.28-2.133 0-16.537-0.001-13.439 0.005-17.492h29.64z">
            </path>
            <path fill="#caeff2"
                d="M32.691 11.842v4.039c0 0.875-0.749 1.599-1.684 1.603h-26.279c-0.933-0.004-1.683-0.729-1.683-1.603 0-1.165 0-0.361 0.005-4.039h29.64z">
            </path>
            <path fill="#f4feff"
                d="M23.64 21.933v9.533h-11.544v-9.533c0-1.178 1.021-2.133 2.28-2.133h6.984c1.259 0 2.28 0.956 2.28 2.133z">
            </path>
            <path fill="#caeff2"
                d="M34.4 11.842c0 2.133-1.849 3.867-4.133 3.867-2.282 0-4.132-1.732-4.132-3.867 0 2.135-1.851 3.867-4.133 3.867s-4.133-1.732-4.133-3.867c0 2.135-1.85 3.867-4.133 3.867-2.282 0-4.133-1.732-4.133-3.867-0.003 2.121-1.869 3.867-4.132 3.867-2.26 0-4.13-1.744-4.133-3.867 0-3.361-0.009-3.154 0.025-3.308 0.035-0.151-0.203 0.385 3.383-7.357 0.181-0.39 0.592-0.643 1.046-0.643h24.157c0.453 0 0.865 0.252 1.046 0.643 3.588 7.748 3.348 7.206 3.383 7.357 0.035 0.154 0.025-0.056 0.025 3.308z">
            </path>
            <path fill="#caeff2"
                d="M34.4 11.842c0 2.133-1.849 3.867-4.133 3.867-2.282 0-4.132-1.732-4.132-3.867 0 2.135-1.851 3.867-4.133 3.867s-4.133-1.732-4.133-3.867c0 2.135-1.851 3.867-4.133 3.867s-4.133-1.732-4.133-3.867c-0.003 2.121-1.869 3.867-4.132 3.867-2.26 0-4.13-1.744-4.133-3.867-0.005-3.38-0.004-3.177 0.025-3.308h33.016c0.035 0.154 0.025-0.056 0.025 3.308z">
            </path>
            <path fill="#fff"
                d="M29.639 3.383c-7.239-0.932-14.544 0.264-20.453 4.428-0.64 0.452-1.437 0.722-2.296 0.722-0.004 0-0.009 0-0.013-0h-5.517c0.035-0.151-0.203 0.385 3.383-7.357 0.181-0.39 0.592-0.643 1.046-0.643h24.157c0.454 0 0.866 0.252 1.046 0.643l0.159 0.342c0.444 0.961-0.404 2.008-1.513 1.865z">
            </path>
            <path fill="#52c29d"
                d="M33.26 18.067v11.267c0 1.47-1.278 2.667-2.851 2.667h-25.084c-1.572 0-2.85-1.196-2.85-2.667v-11.267c0-0.294 0.255-0.533 0.57-0.533s0.571 0.239 0.571 0.533v11.267c0 0.882 0.767 1.6 1.71 1.6h6.199v-9c0-1.47 1.279-2.667 2.851-2.667h6.984c1.572 0 2.85 1.196 2.85 2.667v6.867c0 0.294-0.255 0.533-0.569 0.533-0.316 0-0.571-0.239-0.571-0.533v-6.867c0-0.882-0.767-1.6-1.71-1.6h-6.984c-0.942 0-1.71 0.718-1.71 1.6v9h4.632v-8.4c0-0.294 0.255-0.533 0.57-0.533s0.571 0.239 0.571 0.533v8.4h11.971c0.943 0 1.71-0.717 1.71-1.6v-11.267c0-0.294 0.256-0.533 0.571-0.533s0.57 0.239 0.57 0.533zM4.471 8.533c0 0.294 0.255 0.533 0.57 0.533 31.018 0 29.48 0.052 29.707-0.111 0.114-0.081 0.194-0.204 0.217-0.345l0-0.003c0.032-0.214 0.236 0.313-3.747-8.286-0.095-0.192-0.29-0.321-0.514-0.321-0.003 0-0.006 0-0.009 0h-25.655c-0.003-0-0.006-0-0.009-0-0.225 0-0.419 0.129-0.513 0.318l-0.002 0.003-3.705 8c-0.065 0.142-0.047-0.083-0.047 3.521 0.004 2.427 2.114 4.4 4.702 4.4 1.78 0 3.334-0.933 4.133-2.304 1.783 3.066 6.48 3.069 8.267 0.002 1.786 3.065 6.481 3.066 8.267 0 0.798 1.37 2.351 2.302 4.133 2.302 2.593 0 4.703-1.974 4.703-4.4 0-0.295-0.255-0.533-0.57-0.533s-0.571 0.238-0.571 0.533c0 1.837-1.598 3.333-3.563 3.333s-3.564-1.496-3.564-3.333c0-0.295-0.255-0.533-0.57-0.533s-0.57 0.238-0.57 0.533c0 1.837-1.599 3.333-3.564 3.333s-3.563-1.496-3.563-3.333c0-0.295-0.255-0.533-0.571-0.533s-0.57 0.238-0.57 0.533c0 1.837-1.598 3.333-3.564 3.333-1.92 0-3.563-1.444-3.563-3.36 0-0.295-0.255-0.533-0.57-0.533s-0.571 0.238-0.571 0.533c0 1.899-1.631 3.36-3.563 3.36-1.962 0-3.56-1.496-3.564-3.333v-3.199l3.511-7.576h24.906l3.212 6.933h-28.492c-0.315 0-0.57 0.239-0.57 0.533z">
            </path>
        </symbol>
        <symbol id="icon-megaphone-blue" viewBox="0 0 36 32">
            <path fill="#d1e7ff"
                d="M30.427 15.115c0.708 1.147-0.14 2.587-1.556 2.638-5.634 0.206-10.901 1.576-15.633 3.875l0.232-0.102-1.643 0.886c0 0.007-0.022-0.036 3.976 6.469 0.366 0.596 0.148 1.356-0.487 1.7l-1.295 0.7c-0.636 0.343-1.449 0.14-1.816-0.456l-3.988-6.462-0.648 0.35c-1.271 0.686-2.898 0.279-3.632-0.911l-2.991-4.845c-0.732-1.19-0.297-2.711 0.974-3.398l5.9-3.187c4.508-2.729 8.329-6.342 11.194-10.592 0.756-1.12 2.513-1.088 3.22 0.059l2.559 4.148c1.47-0.794 3.351-0.323 4.2 1.053s0.345 3.134-1.125 3.929l2.56 4.147z">
            </path>
            <path fill="#d1e7ff"
                d="M28.993 7.039c0.849 1.375 0.345 3.134-1.125 3.929l-3.076-4.982c1.471-0.794 3.351-0.323 4.201 1.053z">
            </path>
            <path fill="#e8f3ff"
                d="M22.234 1.838c0.157 0.248 0.25 0.549 0.25 0.872 0 0.361-0.116 0.696-0.314 0.967l0.003-0.005c-3.153 4.444-7.378 8.46-12.546 11.588l-6.913 3.733c-0.475 0.258-0.851 0.613-1.113 1.023l-0.656-1.061c-0.732-1.189-0.297-2.711 0.974-3.397l5.9-3.188c4.508-2.729 8.329-6.341 11.194-10.591 0.756-1.12 2.512-1.088 3.22 0.059z">
            </path>
            <path fill="#b9dcff"
                d="M7.82 12.372l5.65 9.156c-1.132 0.611-4.77 2.574-5.9 3.186-1.271 0.687-2.898 0.279-3.632-0.91l-2.991-4.846c-0.732-1.19-0.297-2.711 0.974-3.398l5.9-3.187z">
            </path>
            <path fill="#d1e7ff"
                d="M9.609 15.271c-7.508 4.053-7.010 3.772-7.252 3.948-0.456 0.332-1.122 0.204-1.411-0.264-0.733-1.189-0.298-2.711 0.973-3.397l5.9-3.187 1.789 2.899z">
            </path>
            <path fill="#b9dcff"
                d="M12.902 24.163c-2.1 1.138-0.555 0.3-3.606 1.948l-1.079-1.748 3.61-1.949 1.076 1.749zM28.809 10.178c-0.244 0.312-0.56 0.584-0.942 0.789l-3.074-4.981c0.382-0.206 0.791-0.326 1.203-0.368l2.813 4.56z">
            </path>
            <path fill="#007ffc"
                d="M28.65 11.13c2.305-1.76 1.508-5.243-1.372-5.964-0.285-0.075-0.612-0.118-0.95-0.118-0.465 0-0.91 0.082-1.323 0.232l0.027-0.009-2.288-3.708c-0.931-1.509-3.24-1.548-4.231-0.078-2.815 4.175-6.564 7.727-11.015 10.422-0.161 0.094-0.268 0.265-0.268 0.462 0 0.098 0.026 0.189 0.072 0.268l-0.001-0.003c0.024 0.042 3.813 6.182 3.839 6.222 0.163 0.265 0.524 0.356 0.806 0.203 0.176-0.090 0.294-0.269 0.294-0.477 0-0.103-0.029-0.199-0.079-0.28l0.001 0.002-3.554-5.759c4.244-2.654 8.004-6.169 10.903-10.471 0.519-0.771 1.724-0.747 2.21 0.040l8.194 13.276c0.486 0.788-0.098 1.776-1.067 1.812-5.725 0.208-11.076 1.6-15.884 3.936l0.235-0.103c-0.020 0.009-5.547 2.995-5.926 3.2-0.988 0.533-2.255 0.216-2.826-0.708l-2.99-4.845c-0.571-0.924-0.231-2.11 0.756-2.644l3.6-1.944c0.176-0.090 0.295-0.269 0.295-0.477 0-0.103-0.029-0.199-0.080-0.281l0.001 0.002c-0.111-0.167-0.299-0.276-0.512-0.276-0.108 0-0.209 0.028-0.297 0.077l0.003-0.002-3.6 1.944c-1.553 0.838-2.086 2.7-1.189 4.152l2.991 4.847c0.896 1.452 2.887 1.95 4.438 1.112l0.137-0.074 3.692 5.984c0.531 0.86 1.703 1.154 2.622 0.658l1.295-0.7c0.919-0.497 1.234-1.594 0.702-2.453l-2.615-4.242c-0.111-0.168-0.299-0.278-0.513-0.278-0.108 0-0.209 0.028-0.297 0.077l0.003-0.002c-0.176 0.090-0.295 0.269-0.295 0.477 0 0.103 0.029 0.199 0.080 0.281l-0.001-0.002 2.617 4.24c0.204 0.331 0.084 0.753-0.27 0.944l-1.295 0.7c-0.354 0.191-0.805 0.078-1.009-0.253l-3.693-5.983 4.729-2.554c4.425-2.159 9.603-3.505 15.074-3.705l0.068-0.002c1.86-0.068 2.973-1.961 2.044-3.467l-2.291-3.708zM28.481 7.315c0.583 0.945 0.373 2.117-0.433 2.84l-2.412-3.909c1.058-0.291 2.253 0.109 2.845 1.069zM34.257 4.859l-1.529 0.826c-0.085 0.047-0.186 0.075-0.293 0.075-0.214 0-0.402-0.109-0.512-0.275l-0.001-0.002c-0.049-0.079-0.078-0.175-0.078-0.278 0-0.208 0.119-0.388 0.292-0.476l0.003-0.001 1.527-0.825c0.085-0.047 0.186-0.075 0.294-0.075 0.214 0 0.402 0.109 0.511 0.275l0.001 0.002c0.049 0.079 0.079 0.176 0.079 0.279 0 0.208-0.119 0.387-0.292 0.476l-0.003 0.001zM27.686 1.71l0.372-1.3c0.084-0.295 0.408-0.469 0.724-0.391 0.315 0.080 0.501 0.382 0.418 0.676l-0.373 1.301c-0.084 0.293-0.407 0.469-0.724 0.391-0.315-0.080-0.501-0.382-0.418-0.677zM35.409 10.757c-0.078 0.239-0.299 0.409-0.559 0.409-0.004 0-0.008-0-0.011-0h0.001c-0.107 0-0.032 0.012-1.544-0.366-0.315-0.080-0.501-0.382-0.418-0.677 0.085-0.294 0.409-0.469 0.724-0.391l1.39 0.349c0.316 0.079 0.502 0.382 0.418 0.676z">
            </path>
        </symbol>
        <symbol id="icon-megaphone-green" viewBox="0 0 36 32">
            <path fill="#e1f4f5"
                d="M30.427 15.115c0.708 1.147-0.14 2.587-1.556 2.638-5.634 0.206-10.901 1.576-15.633 3.875l0.232-0.102-1.643 0.886c0 0.007-0.022-0.036 3.976 6.469 0.366 0.596 0.148 1.356-0.487 1.7l-1.295 0.7c-0.636 0.343-1.449 0.14-1.816-0.456l-3.988-6.462-0.648 0.35c-1.271 0.686-2.898 0.279-3.632-0.911l-2.991-4.845c-0.732-1.19-0.297-2.711 0.974-3.398l5.9-3.187c4.508-2.729 8.329-6.342 11.194-10.592 0.756-1.12 2.513-1.088 3.22 0.059l2.559 4.148c1.47-0.794 3.351-0.323 4.2 1.053s0.345 3.134-1.125 3.929l2.56 4.147z">
            </path>
            <path fill="#e1f4f5"
                d="M28.993 7.039c0.849 1.375 0.345 3.134-1.125 3.929l-3.076-4.982c1.471-0.794 3.351-0.323 4.201 1.053z">
            </path>
            <path fill="#f4feff"
                d="M22.234 1.838c0.157 0.248 0.25 0.549 0.25 0.872 0 0.361-0.116 0.696-0.314 0.967l0.003-0.005c-3.153 4.444-7.378 8.46-12.546 11.588l-6.913 3.733c-0.475 0.258-0.851 0.613-1.113 1.023l-0.656-1.061c-0.732-1.189-0.297-2.711 0.974-3.397l5.9-3.188c4.508-2.729 8.329-6.341 11.194-10.591 0.756-1.12 2.512-1.088 3.22 0.059z">
            </path>
            <path fill="#caeff2"
                d="M7.82 12.372l5.65 9.156c-1.132 0.611-4.77 2.574-5.9 3.186-1.271 0.687-2.898 0.279-3.632-0.91l-2.991-4.846c-0.732-1.19-0.297-2.711 0.974-3.398l5.9-3.187z">
            </path>
            <path fill="#e1f4f5"
                d="M9.609 15.271c-7.508 4.053-7.010 3.772-7.252 3.948-0.456 0.332-1.122 0.204-1.411-0.264-0.733-1.189-0.298-2.711 0.973-3.397l5.9-3.187 1.789 2.899z">
            </path>
            <path fill="#caeff2"
                d="M12.902 24.163c-2.1 1.138-0.555 0.3-3.606 1.948l-1.079-1.748 3.61-1.949 1.076 1.749zM28.809 10.178c-0.244 0.312-0.56 0.584-0.942 0.789l-3.074-4.981c0.382-0.206 0.791-0.326 1.203-0.368l2.813 4.56z">
            </path>
            <path fill="#52c29d"
                d="M28.65 11.13c2.305-1.76 1.508-5.243-1.372-5.964-0.285-0.075-0.612-0.118-0.95-0.118-0.465 0-0.91 0.082-1.323 0.232l0.027-0.009-2.288-3.708c-0.931-1.509-3.24-1.548-4.231-0.078-2.815 4.175-6.564 7.727-11.015 10.422-0.161 0.094-0.268 0.265-0.268 0.462 0 0.098 0.026 0.189 0.072 0.268l-0.001-0.003c0.024 0.042 3.813 6.182 3.839 6.222 0.163 0.265 0.524 0.356 0.806 0.203 0.176-0.090 0.294-0.269 0.294-0.477 0-0.103-0.029-0.199-0.079-0.28l0.001 0.002-3.554-5.759c4.244-2.654 8.004-6.169 10.903-10.471 0.519-0.771 1.724-0.747 2.21 0.040l8.194 13.276c0.486 0.788-0.098 1.776-1.067 1.812-5.725 0.208-11.076 1.6-15.884 3.936l0.235-0.103c-0.020 0.009-5.547 2.995-5.926 3.2-0.988 0.533-2.255 0.216-2.826-0.708l-2.99-4.845c-0.571-0.924-0.231-2.11 0.756-2.644l3.6-1.944c0.176-0.090 0.295-0.269 0.295-0.477 0-0.103-0.029-0.199-0.080-0.281l0.001 0.002c-0.111-0.167-0.299-0.276-0.512-0.276-0.108 0-0.209 0.028-0.297 0.077l0.003-0.002-3.6 1.944c-1.553 0.838-2.086 2.7-1.189 4.152l2.991 4.847c0.896 1.452 2.887 1.95 4.438 1.112l0.137-0.074 3.692 5.984c0.531 0.86 1.703 1.154 2.622 0.658l1.295-0.7c0.919-0.497 1.234-1.594 0.702-2.453l-2.615-4.242c-0.111-0.168-0.299-0.278-0.513-0.278-0.108 0-0.209 0.028-0.297 0.077l0.003-0.002c-0.176 0.090-0.295 0.269-0.295 0.477 0 0.103 0.029 0.199 0.080 0.281l-0.001-0.002 2.617 4.24c0.204 0.331 0.084 0.753-0.27 0.944l-1.295 0.7c-0.354 0.191-0.805 0.078-1.009-0.253l-3.693-5.983 4.729-2.554c4.425-2.159 9.603-3.505 15.074-3.705l0.068-0.002c1.86-0.068 2.973-1.961 2.044-3.467l-2.291-3.708zM28.481 7.315c0.583 0.945 0.373 2.117-0.433 2.84l-2.412-3.909c1.058-0.291 2.253 0.109 2.845 1.069zM34.257 4.859l-1.529 0.826c-0.085 0.047-0.186 0.075-0.293 0.075-0.214 0-0.402-0.109-0.512-0.275l-0.001-0.002c-0.049-0.079-0.078-0.175-0.078-0.278 0-0.208 0.119-0.388 0.292-0.476l0.003-0.001 1.527-0.825c0.085-0.047 0.186-0.075 0.294-0.075 0.214 0 0.402 0.109 0.511 0.275l0.001 0.002c0.049 0.079 0.079 0.176 0.079 0.279 0 0.208-0.119 0.387-0.292 0.476l-0.003 0.001zM27.686 1.71l0.372-1.3c0.084-0.295 0.408-0.469 0.724-0.391 0.315 0.080 0.501 0.382 0.418 0.676l-0.373 1.301c-0.084 0.293-0.407 0.469-0.724 0.391-0.315-0.080-0.501-0.382-0.418-0.677zM35.409 10.757c-0.078 0.239-0.299 0.409-0.559 0.409-0.004 0-0.008-0-0.011-0h0.001c-0.107 0-0.032 0.012-1.544-0.366-0.315-0.080-0.501-0.382-0.418-0.677 0.085-0.294 0.409-0.469 0.724-0.391l1.39 0.349c0.316 0.079 0.502 0.382 0.418 0.676z">
            </path>
        </symbol>
        <symbol id="icon-phone-blue" viewBox="0 0 22 32">
            <path  fill="#d1e7ff"
                d="M18.837 0.533c1.26 0 2.281 0.956 2.281 2.133v26.667c0 1.178-1.021 2.133-2.281 2.133h-15.677c-1.258 0-2.28-0.956-2.28-2.133v-26.667c0-1.178 1.021-2.133 2.28-2.133h15.677z">
            </path>
            <path fill="#d1e7ff"
                d="M14.585 11.981c0.546 0 1.004 0.385 1.062 0.892l0.763 6.551c0.069 0.592-0.427 1.108-1.062 1.108h-8.697c-0.636 0-1.132-0.516-1.063-1.108l0.763-6.551c0.060-0.508 0.516-0.892 1.063-0.892h7.172z">
            </path>
            <path fill="#e8f3ff"
                d="M18.946 0.536c1.834 0.080 1.736 2.664-0.1 2.664h-7.42c-4.251 0-7.697 3.224-7.697 7.2v21.067h-0.569c-1.261 0-2.281-0.955-2.281-2.133v-26.667c0-1.178 1.020-2.133 2.28-2.133 0.103 0 15.702 0 15.786 0.003z">
            </path>
            <path fill="#b9dcff"
                d="M21.118 26.8v2.533c0 1.178-1.021 2.133-2.281 2.133h-15.677c-1.258 0-2.28-0.956-2.28-2.133v-2.533h20.238z">
            </path>
            <path fill="#d1e7ff"
                d="M3.73 26.8v2.541c0 1.738-2.85 1.826-2.85-0.008v-2.533h2.85zM14.585 13.981c-3.453 0-6.276 2.432-6.64 5.564-0.066 0.562-0.572 0.988-1.177 0.988h-0.117c-0.636 0-1.132-0.516-1.063-1.108l0.763-6.551c0.060-0.508 0.516-0.892 1.063-0.892h7.172c0.545 0 1.004 0.384 1.062 0.892 0.069 0.593-0.427 1.108-1.062 1.108z">
            </path>
            <path fill="#007ffc"
                d="M18.837 0h-15.677c-1.572 0-2.851 1.196-2.851 2.667v26.667c0 1.47 1.279 2.667 2.851 2.667h15.677c1.572 0 2.851-1.196 2.851-2.667v-26.667c0-1.47-1.278-2.667-2.851-2.667zM18.837 30.933h-15.677c-0.942 0-1.71-0.717-1.71-1.6v-26.667c0-0.883 0.767-1.6 1.71-1.6h15.677c0.943 0 1.71 0.717 1.71 1.6v23.6h-16.318c-0.316 0-0.571 0.239-0.571 0.533s0.255 0.533 0.571 0.533h16.318v2c0 0.882-0.767 1.6-1.71 1.6zM12.282 29c0 0.294-0.255 0.533-0.571 0.533h-1.425c-0.315 0-0.57-0.239-0.57-0.533s0.255-0.533 0.57-0.533h1.425c0.316 0 0.571 0.239 0.571 0.533zM6.651 21.067h8.697c0.975 0 1.734-0.793 1.629-1.7l-0.763-6.551c-0.091-0.78-0.791-1.368-1.629-1.368h-0.528v-0.987c0-1.578-1.372-2.861-3.058-2.861s-3.058 1.284-3.058 2.861v0.987h-0.528c-0.838 0-1.539 0.588-1.629 1.368l-0.763 6.551c-0.106 0.907 0.655 1.7 1.629 1.7zM6.155 19.483l0.763-6.551c0.035-0.237 0.238-0.417 0.482-0.417 0.005 0 0.010 0 0.015 0l-0.001-0h0.527v0.832c0 0.295 0.255 0.533 0.571 0.533s0.57-0.238 0.57-0.533v-2.884c0-0.989 0.86-1.795 1.918-1.795s1.917 0.804 1.917 1.795v0.987h-2.466c-0.315 0-0.57 0.239-0.57 0.533s0.255 0.533 0.57 0.533h2.466v0.832c0 0.295 0.255 0.533 0.571 0.533s0.57-0.238 0.57-0.533v-0.832h0.528c0.255 0 0.468 0.18 0.496 0.416l0.762 6.552c0.033 0.276-0.197 0.517-0.496 0.517h-8.696c-0.297 0-0.528-0.24-0.496-0.517z">
            </path>
        </symbol>
        <symbol id="icon-phone-green" viewBox="0 0 22 32">
            <path class="one1" fill="#e1f4f5"
                d="M18.837 0.533c1.26 0 2.281 0.956 2.281 2.133v26.667c0 1.178-1.021 2.133-2.281 2.133h-15.677c-1.258 0-2.28-0.956-2.28-2.133v-26.667c0-1.178 1.021-2.133 2.28-2.133h15.677z">
            </path>
            <path fill="#caeff2"
                d="M14.585 11.981c0.546 0 1.004 0.385 1.062 0.892l0.763 6.551c0.069 0.592-0.427 1.108-1.062 1.108h-8.697c-0.636 0-1.132-0.516-1.063-1.108l0.763-6.551c0.060-0.508 0.516-0.892 1.063-0.892h7.172z">
            </path>
            <path fill="#f4feff"
                d="M18.946 0.536c1.834 0.080 1.736 2.664-0.1 2.664h-7.42c-4.251 0-7.697 3.224-7.697 7.2v21.067h-0.569c-1.261 0-2.281-0.955-2.281-2.133v-26.667c0-1.178 1.020-2.133 2.28-2.133 0.103 0 15.702 0 15.786 0.003z">
            </path>
            <path fill="#caeff2"
                d="M21.118 26.8v2.533c0 1.178-1.021 2.133-2.281 2.133h-15.677c-1.258 0-2.28-0.956-2.28-2.133v-2.533h20.238z">
            </path>
            <path fill="#e1f4f5"
                d="M3.73 26.8v2.541c0 1.738-2.85 1.826-2.85-0.008v-2.533h2.85zM14.585 13.981c-3.453 0-6.276 2.432-6.64 5.564-0.066 0.562-0.572 0.988-1.177 0.988h-0.117c-0.636 0-1.132-0.516-1.063-1.108l0.763-6.551c0.060-0.508 0.516-0.892 1.063-0.892h7.172c0.545 0 1.004 0.384 1.062 0.892 0.069 0.593-0.427 1.108-1.062 1.108z">
            </path>
            <path fill="#52c29d"
                d="M18.837 0h-15.677c-1.572 0-2.851 1.196-2.851 2.667v26.667c0 1.47 1.279 2.667 2.851 2.667h15.677c1.572 0 2.851-1.196 2.851-2.667v-26.667c0-1.47-1.278-2.667-2.851-2.667zM18.837 30.933h-15.677c-0.942 0-1.71-0.717-1.71-1.6v-26.667c0-0.883 0.767-1.6 1.71-1.6h15.677c0.943 0 1.71 0.717 1.71 1.6v23.6h-16.318c-0.316 0-0.571 0.239-0.571 0.533s0.255 0.533 0.571 0.533h16.318v2c0 0.883-0.767 1.6-1.71 1.6zM12.282 29c0 0.294-0.255 0.533-0.571 0.533h-1.425c-0.315 0-0.57-0.239-0.57-0.533s0.255-0.533 0.57-0.533h1.425c0.316 0 0.571 0.239 0.571 0.533zM6.651 21.067h8.697c0.975 0 1.734-0.793 1.629-1.7l-0.763-6.551c-0.091-0.78-0.791-1.368-1.629-1.368h-0.528v-0.987c0-1.578-1.372-2.861-3.058-2.861s-3.058 1.284-3.058 2.861v0.987h-0.528c-0.838 0-1.539 0.588-1.629 1.368l-0.763 6.551c-0.106 0.907 0.655 1.7 1.629 1.7zM6.155 19.483l0.763-6.551c0.035-0.237 0.238-0.417 0.482-0.417 0.005 0 0.010 0 0.015 0l-0.001-0h0.527v0.832c0 0.295 0.255 0.533 0.571 0.533s0.57-0.238 0.57-0.533v-2.884c0-0.989 0.86-1.795 1.918-1.795s1.917 0.804 1.917 1.795v0.987h-2.466c-0.315 0-0.57 0.239-0.57 0.533s0.255 0.533 0.57 0.533h2.466v0.832c0 0.295 0.255 0.533 0.571 0.533s0.57-0.238 0.57-0.533v-0.832h0.528c0.255 0 0.468 0.18 0.496 0.416l0.762 6.552c0.033 0.276-0.197 0.517-0.496 0.517h-8.696c-0.297 0-0.528-0.24-0.496-0.517z">
            </path>
        </symbol>
        <symbol id="icon-dribbble" viewBox="0 0 32 32">
            <path
                d="M15.501 0c-8.547 0-15.501 6.954-15.501 15.501 0 8.546 6.954 15.499 15.501 15.499 8.546 0 15.499-6.954 15.499-15.501 0-8.546-6.954-15.499-15.501-15.499zM25.749 7.147c1.838 2.228 2.962 5.104 2.989 8.242l0 0.006c-0.437-0.093-4.813-0.981-9.219-0.426-0.461-1.143-0.852-1.999-1.27-2.839l0.107 0.238c4.896-2 7.114-4.843 7.392-5.221zM24.277 5.618c-0.24 0.339-2.232 3.018-6.939 4.782-1.655-2.995-3.291-5.528-5.077-7.943l0.136 0.192c0.932-0.235 2.002-0.37 3.104-0.37 3.375 0 6.454 1.266 8.789 3.349l-0.013-0.011zM9.872 3.536c0.349 0.48 2.714 3.758 4.907 7.658-6.192 1.645-11.648 1.621-12.24 1.613 0.896-4.13 3.615-7.485 7.253-9.233l0.080-0.035zM2.261 15.52c0-0.136 0.003-0.272 0.006-0.406 0.579 0.013 6.995 0.096 13.606-1.883 0.379 0.741 0.741 1.494 1.074 2.246-4.787 1.349-9.136 5.221-11.283 8.894-2.111-2.329-3.403-5.435-3.403-8.842 0-0.003 0-0.007 0-0.010v0.001zM7.373 25.963c1.384-2.827 5.136-6.477 10.475-8.298 1.858 4.832 2.627 8.88 2.824 10.040-1.525 0.666-3.303 1.054-5.171 1.054-3.078 0-5.911-1.053-8.157-2.818l0.029 0.022zM22.898 26.494c-0.136-0.806-0.84-4.682-2.573-9.44 4.149-0.664 7.794 0.422 8.248 0.566-0.618 3.714-2.704 6.849-5.629 8.844l-0.046 0.029z">
            </path>
        </symbol>
        <symbol id="icon-facebook" viewBox="0 0 32 32">
            <path
                d="M23.318 17.688l0.872-5.691h-5.46v-3.692c0-1.558 0.763-3.075 3.208-3.075h2.483v-4.845s-2.253-0.384-4.408-0.384c-4.497 0-7.436 2.725-7.436 7.66v4.337h-4.999v5.693h4.999v13.757h6.152v-13.757h4.588z">
            </path>
        </symbol>
        <symbol id="icon-github" viewBox="0 0 32 32">
            <path
                d="M10.704 25.123c0 0.128-0.149 0.232-0.336 0.232-0.213 0.019-0.362-0.085-0.362-0.232 0-0.13 0.149-0.234 0.336-0.234 0.192-0.019 0.362 0.085 0.362 0.234zM8.696 24.832c-0.045 0.128 0.085 0.278 0.278 0.317 0.168 0.064 0.362 0 0.4-0.128 0.038-0.131-0.085-0.278-0.278-0.336-0.166-0.046-0.354 0.018-0.4 0.147zM11.549 24.723c-0.187 0.045-0.317 0.166-0.298 0.315 0.019 0.128 0.187 0.213 0.381 0.168 0.187-0.045 0.317-0.168 0.298-0.296-0.019-0.123-0.194-0.208-0.381-0.187zM15.792 0c-8.947 0-15.792 6.794-15.792 15.742 0 7.154 4.504 13.277 10.936 15.432 0.826 0.149 1.115-0.362 1.115-0.781 0-0.4-0.019-2.608-0.019-3.962 0 0-4.515 0.968-5.464-1.922 0 0-0.736-1.878-1.794-2.362 0 0-1.478-1.013 0.102-0.994 0 0 1.606 0.128 2.491 1.664 1.413 2.49 3.781 1.774 4.704 1.349 0.147-1.032 0.566-1.749 1.032-2.174-3.608-0.4-7.246-0.923-7.246-7.13 0-1.774 0.491-2.664 1.523-3.8-0.168-0.419-0.717-2.147 0.168-4.381 1.347-0.419 4.451 1.744 4.451 1.744 1.213-0.349 2.607-0.55 4.048-0.55 0.001 0 0.003 0 0.004 0h-0c1.376 0 2.762 0.187 4.053 0.549 0 0 3.102-2.168 4.451-1.742 0.883 2.24 0.336 3.962 0.168 4.381 1.032 1.142 1.664 2.032 1.664 3.8 0 6.227-3.8 6.723-7.408 7.13 0.595 0.51 1.098 1.477 1.098 2.992 0 2.176-0.019 4.866-0.019 5.395 0 0.419 0.298 0.928 1.117 0.781 6.451-2.142 10.826-8.266 10.826-15.419 0-8.949-7.258-15.742-16.206-15.742zM6.27 22.251c-0.083 0.064-0.064 0.213 0.046 0.336 0.102 0.102 0.251 0.149 0.336 0.064 0.083-0.064 0.064-0.213-0.046-0.336-0.102-0.102-0.251-0.147-0.336-0.064zM5.574 21.73c-0.045 0.083 0.019 0.187 0.149 0.251 0.102 0.064 0.232 0.045 0.277-0.045 0.045-0.085-0.019-0.187-0.149-0.253-0.128-0.038-0.232-0.019-0.277 0.046zM7.664 24.026c-0.102 0.085-0.064 0.278 0.085 0.4 0.147 0.149 0.336 0.168 0.419 0.064 0.083-0.083 0.045-0.277-0.085-0.4-0.141-0.147-0.336-0.166-0.419-0.064zM6.928 23.077c-0.102 0.064-0.102 0.234 0 0.381 0.104 0.149 0.278 0.213 0.362 0.149 0.104-0.083 0.104-0.251 0-0.4-0.090-0.149-0.256-0.213-0.36-0.128z">
            </path>
        </symbol>
        <symbol id="icon-instagram" viewBox="0 0 32 32">
            <path
                d="M15.25 7.427c-4.328 0-7.817 3.49-7.817 7.817 0 4.326 3.49 7.816 7.817 7.816s7.817-3.49 7.817-7.817c0-4.326-3.49-7.817-7.817-7.817zM15.25 20.325c-2.805-0.004-5.078-2.277-5.082-5.082v-0c0.003-2.805 2.277-5.078 5.082-5.080h0c2.805 0.003 5.078 2.275 5.082 5.080v0c-0.004 2.805-2.277 5.078-5.082 5.082h-0zM25.21 7.107c0 1.013-0.817 1.822-1.824 1.822-0 0-0.001 0-0.002 0-1.007 0-1.824-0.817-1.824-1.824s0.817-1.824 1.824-1.824c1.007 0 1.824 0.817 1.824 1.824 0 0.001 0 0.001 0 0.002v-0zM30.386 8.957c-0.116-2.441-0.674-4.605-2.462-6.388-1.783-1.783-3.947-2.339-6.388-2.462-2.519-0.142-10.062-0.142-12.579 0-2.435 0.116-4.599 0.674-6.388 2.456s-2.339 3.947-2.462 6.388c-0.142 2.517-0.142 10.062 0 12.578 0.116 2.443 0.674 4.606 2.462 6.388 1.789 1.783 3.947 2.341 6.388 2.462 2.517 0.143 10.062 0.143 12.579 0 2.443-0.116 4.605-0.674 6.388-2.462 1.783-1.783 2.339-3.945 2.462-6.388 0.143-2.516 0.143-10.054 0-12.571zM27.134 24.23c-0.535 1.329-1.569 2.363-2.864 2.884l-0.035 0.012c-2.007 0.797-6.769 0.613-8.986 0.613-2.219 0-6.987 0.177-8.987-0.613-1.329-0.535-2.362-1.568-2.884-2.862l-0.012-0.035c-0.797-2.007-0.613-6.769-0.613-8.987 0-2.217-0.177-6.985 0.613-8.986 0.534-1.33 1.567-2.364 2.862-2.886l0.035-0.012c2.007-0.795 6.769-0.613 8.987-0.613 2.217 0 6.987-0.177 8.986 0.613 1.33 0.534 2.364 1.568 2.886 2.864l0.012 0.035c0.795 2.007 0.613 6.769 0.613 8.986 0 2.219 0.183 6.987-0.613 8.987z">
            </path>
        </symbol>
        <symbol id="icon-twitter" viewBox="0 0 32 32">
            <path
                d="M28.71 8.877c0.021 0.285 0.021 0.57 0.021 0.853 0 8.67-6.6 18.661-18.661 18.661-3.715 0-7.168-1.077-10.070-2.944 0.528 0.061 1.035 0.080 1.584 0.080 3.066 0 5.888-1.035 8.142-2.802-2.858-0.053-5.266-1.924-6.12-4.502l-0.013-0.046c0.406 0.061 0.813 0.102 1.238 0.102 0.589 0 1.178-0.082 1.726-0.224-3.021-0.627-5.259-3.267-5.259-6.43 0-0.002 0-0.005 0-0.007v0-0.080c0.874 0.486 1.888 0.792 2.965 0.832-1.772-1.192-2.923-3.19-2.923-5.456 0-0.002 0-0.004 0-0.007v0c0-1.218 0.325-2.336 0.893-3.309 3.25 3.978 8.057 6.578 13.477 6.862l0.046 0.002c-0.101-0.451-0.16-0.97-0.163-1.502v-0.002c0-0.001 0-0.002 0-0.003 0-3.62 2.935-6.555 6.555-6.555 0.002 0 0.003 0 0.005 0h-0c1.888 0 3.592 0.792 4.79 2.070 1.57-0.308 2.965-0.858 4.221-1.616l-0.058 0.032c-0.507 1.543-1.527 2.8-2.854 3.6l-0.029 0.016c1.4-0.164 2.676-0.522 3.859-1.051l-0.083 0.033c-0.915 1.321-2.005 2.443-3.251 3.365l-0.038 0.027z">
            </path>
        </symbol>
    </defs>
</svg>