<svg aria-hidden="true" style="position: absolute; width: 0; height: 0; overflow: hidden;" version="1.1" xmlns="http://www.w3.org/2000/svg" xmlns:xlink="http://www.w3.org/1999/xlink">
<defs>
<symbol id="icon-Logo" viewBox="0 0 178 32">
<path fill="#16133d" style="fill: var(--color1, #16133d)" d="M42.784 27.556c-0.373 0-0.684-0.124-0.933-0.373-0.228-0.249-0.342-0.55-0.342-0.902v-19.258c0-0.353 0.114-0.643 0.342-0.871 0.249-0.249 0.55-0.373 0.902-0.373h10.92c0.353 0 0.653 0.114 0.902 0.342s0.373 0.518 0.373 0.871c0 0.332-0.124 0.612-0.373 0.84s-0.55 0.342-0.902 0.342h-9.8l0.187-0.249v7.622l-0.156-0.342h8.369c0.353 0 0.653 0.124 0.902 0.373 0.249 0.228 0.373 0.519 0.373 0.871 0 0.311-0.124 0.591-0.373 0.84-0.249 0.228-0.55 0.342-0.902 0.342h-8.431l0.218-0.28v8.929c0 0.353-0.124 0.653-0.373 0.902s-0.55 0.373-0.902 0.373zM59.635 27.556c-0.353 0-0.653-0.124-0.902-0.373-0.228-0.249-0.342-0.55-0.342-0.902v-13.564c0-0.353 0.114-0.643 0.342-0.871 0.249-0.249 0.55-0.373 0.902-0.373 0.373 0 0.674 0.124 0.902 0.373 0.228 0.228 0.342 0.518 0.342 0.871v4.107l-0.373-0.653c0.124-0.643 0.342-1.265 0.653-1.867 0.332-0.622 0.747-1.172 1.244-1.649 0.498-0.498 1.068-0.882 1.711-1.151 0.643-0.29 1.348-0.436 2.116-0.436 0.456 0 0.871 0.114 1.244 0.342 0.394 0.207 0.591 0.508 0.591 0.902 0 0.436-0.114 0.757-0.342 0.964s-0.487 0.311-0.778 0.311c-0.27 0-0.529-0.052-0.778-0.156-0.249-0.124-0.56-0.187-0.933-0.187-0.519 0-1.037 0.145-1.556 0.436-0.498 0.27-0.964 0.664-1.4 1.182-0.415 0.518-0.757 1.11-1.027 1.773-0.249 0.643-0.373 1.338-0.373 2.084v7.56c0 0.353-0.124 0.653-0.373 0.902-0.228 0.249-0.519 0.373-0.871 0.373zM77.614 27.867c-1.659 0-3.111-0.353-4.356-1.058s-2.219-1.67-2.924-2.893c-0.684-1.244-1.027-2.676-1.027-4.293 0-1.804 0.353-3.339 1.058-4.604 0.726-1.286 1.659-2.261 2.8-2.924 1.162-0.684 2.385-1.027 3.671-1.027 0.954 0 1.877 0.176 2.769 0.529s1.68 0.871 2.364 1.556c0.684 0.664 1.234 1.473 1.649 2.427 0.415 0.933 0.633 1.981 0.653 3.142 0 0.332-0.124 0.612-0.373 0.84s-0.539 0.342-0.871 0.342h-12.289l-0.56-2.147h11.978l-0.498 0.436v-0.684c-0.083-0.85-0.373-1.576-0.871-2.178-0.477-0.622-1.068-1.099-1.773-1.431-0.684-0.332-1.41-0.498-2.178-0.498-0.622 0-1.244 0.114-1.867 0.342-0.601 0.207-1.151 0.56-1.649 1.058-0.477 0.477-0.871 1.099-1.182 1.867-0.29 0.767-0.436 1.69-0.436 2.769 0 1.203 0.239 2.261 0.716 3.173 0.498 0.913 1.182 1.639 2.053 2.178 0.871 0.518 1.887 0.778 3.049 0.778 0.726 0 1.359-0.093 1.898-0.28s1.006-0.415 1.4-0.684c0.394-0.29 0.726-0.581 0.996-0.871 0.27-0.187 0.529-0.28 0.778-0.28 0.311 0 0.56 0.104 0.747 0.311 0.207 0.207 0.311 0.456 0.311 0.747 0 0.353-0.166 0.664-0.498 0.933-0.581 0.643-1.369 1.213-2.364 1.711-0.996 0.477-2.053 0.716-3.173 0.716zM95.449 27.867c-1.66 0-3.111-0.353-4.356-1.058s-2.22-1.67-2.925-2.893c-0.684-1.244-1.027-2.676-1.027-4.293 0-1.804 0.353-3.339 1.058-4.604 0.726-1.286 1.659-2.261 2.8-2.924 1.161-0.684 2.385-1.027 3.671-1.027 0.954 0 1.876 0.176 2.769 0.529s1.68 0.871 2.364 1.556c0.684 0.664 1.234 1.473 1.649 2.427 0.414 0.933 0.632 1.981 0.653 3.142 0 0.332-0.124 0.612-0.373 0.84s-0.54 0.342-0.871 0.342h-12.289l-0.56-2.147h11.978l-0.498 0.436v-0.684c-0.084-0.85-0.373-1.576-0.871-2.178-0.477-0.622-1.068-1.099-1.773-1.431-0.684-0.332-1.411-0.498-2.178-0.498-0.622 0-1.244 0.114-1.867 0.342-0.602 0.207-1.151 0.56-1.649 1.058-0.477 0.477-0.871 1.099-1.182 1.867-0.291 0.767-0.436 1.69-0.436 2.769 0 1.203 0.238 2.261 0.716 3.173 0.498 0.913 1.182 1.639 2.053 2.178 0.871 0.518 1.887 0.778 3.049 0.778 0.725 0 1.358-0.093 1.898-0.28s1.005-0.415 1.4-0.684c0.394-0.29 0.725-0.581 0.996-0.871 0.269-0.187 0.529-0.28 0.778-0.28 0.311 0 0.56 0.104 0.747 0.311 0.207 0.207 0.311 0.456 0.311 0.747 0 0.353-0.166 0.664-0.498 0.933-0.581 0.643-1.369 1.213-2.364 1.711-0.996 0.477-2.053 0.716-3.173 0.716zM113.625 11.222c1.369 0 2.447 0.301 3.236 0.902 0.809 0.581 1.38 1.369 1.711 2.364 0.353 0.975 0.529 2.064 0.529 3.267v8.524c0 0.353-0.124 0.653-0.373 0.902-0.228 0.249-0.518 0.373-0.871 0.373s-0.653-0.124-0.902-0.373c-0.228-0.249-0.342-0.55-0.342-0.902v-8.524c0-0.788-0.114-1.493-0.342-2.116-0.228-0.643-0.612-1.151-1.151-1.524-0.518-0.394-1.234-0.591-2.147-0.591-0.851 0-1.628 0.197-2.333 0.591-0.705 0.373-1.265 0.882-1.68 1.524-0.415 0.622-0.622 1.327-0.622 2.116v8.524c0 0.353-0.124 0.653-0.373 0.902-0.228 0.249-0.518 0.373-0.871 0.373s-0.653-0.124-0.902-0.373c-0.228-0.249-0.342-0.55-0.342-0.902v-20.502c0-0.353 0.114-0.643 0.342-0.871 0.249-0.249 0.549-0.373 0.902-0.373 0.373 0 0.674 0.124 0.902 0.373 0.228 0.228 0.342 0.519 0.342 0.871v9.302l-0.622 0.684c0.104-0.539 0.332-1.079 0.684-1.618 0.353-0.56 0.798-1.058 1.338-1.493s1.14-0.778 1.804-1.027c0.664-0.27 1.358-0.404 2.084-0.404zM136.965 11.316c0.352 0 0.643 0.124 0.871 0.373 0.249 0.228 0.373 0.518 0.373 0.871v13.72c0 0.353-0.124 0.653-0.373 0.902-0.228 0.249-0.519 0.373-0.871 0.373-0.373 0-0.675-0.124-0.902-0.373s-0.342-0.55-0.342-0.902v-2.956l0.591-0.062c0 0.456-0.156 0.954-0.467 1.493s-0.737 1.047-1.276 1.524c-0.54 0.456-1.182 0.84-1.929 1.151-0.726 0.29-1.515 0.436-2.364 0.436-1.411 0-2.676-0.363-3.796-1.089-1.12-0.747-2.012-1.753-2.676-3.018-0.644-1.265-0.964-2.707-0.964-4.324 0-1.639 0.321-3.080 0.964-4.324 0.663-1.265 1.556-2.25 2.676-2.956 1.12-0.726 2.364-1.089 3.733-1.089 0.892 0 1.721 0.145 2.489 0.436s1.431 0.684 1.991 1.182c0.58 0.498 1.027 1.047 1.338 1.649 0.332 0.601 0.498 1.203 0.498 1.804l-0.809-0.187v-3.391c0-0.353 0.114-0.643 0.342-0.871 0.228-0.249 0.529-0.373 0.902-0.373zM130.556 25.564c1.036 0 1.949-0.27 2.738-0.809 0.809-0.539 1.431-1.265 1.867-2.178 0.456-0.933 0.684-1.981 0.684-3.142 0-1.141-0.228-2.167-0.684-3.080-0.436-0.933-1.058-1.659-1.867-2.178-0.788-0.539-1.701-0.809-2.738-0.809-1.017 0-1.929 0.259-2.738 0.778-0.788 0.518-1.411 1.234-1.867 2.147s-0.684 1.96-0.684 3.142c0 1.162 0.218 2.209 0.653 3.142 0.456 0.913 1.078 1.639 1.867 2.178 0.809 0.539 1.732 0.809 2.769 0.809zM150.818 11.067c1.41 0 2.52 0.29 3.329 0.871s1.379 1.358 1.711 2.333c0.352 0.975 0.529 2.064 0.529 3.267v8.742c0 0.353-0.124 0.653-0.373 0.902-0.228 0.249-0.519 0.373-0.871 0.373s-0.653-0.124-0.902-0.373c-0.228-0.249-0.342-0.55-0.342-0.902v-8.68c0-0.788-0.124-1.493-0.373-2.116-0.228-0.643-0.622-1.151-1.182-1.524-0.54-0.394-1.286-0.591-2.24-0.591-0.871 0-1.67 0.197-2.396 0.591-0.726 0.373-1.307 0.882-1.742 1.524-0.436 0.622-0.653 1.327-0.653 2.116v8.68c0 0.353-0.124 0.653-0.373 0.902-0.228 0.249-0.519 0.373-0.871 0.373s-0.653-0.124-0.902-0.373c-0.228-0.249-0.342-0.55-0.342-0.902v-13.564c0-0.353 0.114-0.643 0.342-0.871 0.249-0.249 0.549-0.373 0.902-0.373 0.373 0 0.674 0.124 0.902 0.373 0.228 0.228 0.342 0.518 0.342 0.871v2.209l-0.622 0.684c0.103-0.539 0.342-1.079 0.716-1.618 0.373-0.56 0.84-1.058 1.4-1.493s1.182-0.778 1.867-1.027c0.684-0.27 1.4-0.404 2.147-0.404zM174.244 4.533c0.353 0 0.644 0.124 0.871 0.373 0.249 0.228 0.373 0.518 0.373 0.871v20.502c0 0.353-0.124 0.653-0.373 0.902-0.228 0.249-0.518 0.373-0.871 0.373-0.373 0-0.674-0.124-0.902-0.373s-0.342-0.55-0.342-0.902v-2.956l0.591-0.218c0 0.498-0.156 1.027-0.467 1.587-0.311 0.539-0.736 1.047-1.276 1.524s-1.182 0.871-1.929 1.182c-0.725 0.311-1.514 0.467-2.364 0.467-1.389 0-2.654-0.363-3.796-1.089-1.12-0.726-2.012-1.721-2.676-2.987-0.643-1.265-0.964-2.707-0.964-4.324 0-1.639 0.322-3.090 0.964-4.356 0.664-1.265 1.556-2.25 2.676-2.956 1.12-0.726 2.364-1.089 3.733-1.089 0.871 0 1.691 0.145 2.458 0.436s1.431 0.684 1.991 1.182c0.581 0.498 1.037 1.047 1.369 1.649s0.498 1.203 0.498 1.804l-0.809-0.187v-10.173c0-0.353 0.115-0.643 0.342-0.871 0.228-0.249 0.529-0.373 0.902-0.373zM167.835 25.564c1.037 0 1.95-0.259 2.738-0.778 0.809-0.539 1.431-1.265 1.867-2.178 0.457-0.933 0.684-1.981 0.684-3.142 0-1.182-0.228-2.23-0.684-3.142-0.436-0.913-1.058-1.628-1.867-2.147-0.788-0.539-1.7-0.809-2.738-0.809-1.016 0-1.929 0.27-2.738 0.809-0.788 0.518-1.41 1.234-1.867 2.147s-0.684 1.96-0.684 3.142c0 1.141 0.228 2.178 0.684 3.111 0.457 0.913 1.079 1.639 1.867 2.178 0.809 0.539 1.722 0.809 2.738 0.809z"></path>
<path fill="#3db370" style="fill: var(--color2, #3db370); stroke: var(--color2, #3db370)" stroke="#3db370" stroke-linejoin="miter" stroke-linecap="butt" stroke-miterlimit="4" stroke-width="0.8889" d="M21.423 16c0-0.36 0.248-0.676 0.601-0.758 2.637-0.615 4.478-2.938 4.478-5.654 0-3.205-2.601-5.811-5.794-5.811-2.725 0-5.111 1.94-5.669 4.612l6.384 7.61zM21.423 16c0 0.36 0.248 0.675 0.601 0.757l-0.601-0.757zM15.039 23.61c0.558 2.672 2.944 4.612 5.669 4.612 3.193 0 5.794-2.606 5.794-5.811 0-2.716-1.841-5.039-4.478-5.654l-6.985 6.853zM15.039 23.61c-0.075-0.36-0.392-0.619-0.76-0.619s-0.685 0.259-0.76 0.619c-0.559 2.672-2.945 4.612-5.67 4.612-3.193 0-5.794-2.606-5.794-5.811 0-2.716 1.841-5.039 4.478-5.654 0.353-0.082 0.601-0.397 0.601-0.758s-0.248-0.675-0.601-0.757l8.505 8.368zM13.519 8.39c-0.559-2.672-2.945-4.612-5.67-4.612-3.193 0-5.794 2.606-5.794 5.811 0 2.716 1.841 5.039 4.478 5.654l6.985-6.853zM13.519 8.39c0.075 0.36 0.392 0.619 0.76 0.619s0.685-0.259 0.76-0.618l-1.521-0zM7.849 29.778c2.716 0 5.161-1.515 6.43-3.805 1.269 2.29 3.714 3.805 6.43 3.805 4.053 0 7.348-3.305 7.348-7.366 0-2.721-1.461-5.135-3.728-6.411 2.267-1.276 3.728-3.691 3.728-6.411 0-4.061-3.295-7.366-7.348-7.366-2.716 0-5.161 1.515-6.43 3.805-1.269-2.29-3.714-3.805-6.43-3.805-4.053 0-7.348 3.305-7.348 7.366 0 2.721 1.461 5.135 3.728 6.411-2.267 1.276-3.728 3.691-3.728 6.411 0 4.061 3.295 7.366 7.348 7.366z"></path>
</symbol>
<symbol id="icon-building-blue" viewBox="0 0 36 32">
<path fill="#d1e7ff" style="fill: var(--color3, #d1e7ff)" d="M32.691 11.842v17.492c0 1.178-1.022 2.133-2.281 2.133h-25.084c-1.259 0-2.28-0.956-2.28-2.133 0-16.537-0.001-13.439 0.005-17.492h29.64z"></path>
<path fill="#b9dcff" style="fill: var(--color4, #b9dcff)" d="M32.691 11.842v4.039c0 0.875-0.749 1.599-1.684 1.603h-26.279c-0.933-0.004-1.683-0.729-1.683-1.603 0-1.165 0-0.361 0.005-4.039h29.64z"></path>
<path fill="#e8f3ff" style="fill: var(--color5, #e8f3ff)" d="M23.64 21.933v9.533h-11.544v-9.533c0-1.178 1.021-2.133 2.28-2.133h6.984c1.259 0 2.28 0.956 2.28 2.133z"></path>
<path fill="#b9dcff" style="fill: var(--color4, #b9dcff)" d="M34.4 11.842c0 2.133-1.849 3.867-4.133 3.867-2.282 0-4.132-1.732-4.132-3.867 0 2.135-1.851 3.867-4.133 3.867s-4.133-1.732-4.133-3.867c0 2.135-1.85 3.867-4.133 3.867-2.282 0-4.133-1.732-4.133-3.867-0.003 2.121-1.869 3.867-4.132 3.867-2.26 0-4.13-1.744-4.133-3.867 0-3.361-0.009-3.154 0.025-3.308 0.035-0.151-0.203 0.385 3.383-7.357 0.181-0.39 0.592-0.643 1.046-0.643h24.157c0.453 0 0.865 0.252 1.046 0.643 3.588 7.748 3.348 7.206 3.383 7.357 0.035 0.154 0.025-0.056 0.025 3.308z"></path>
<path fill="#b9dcff" style="fill: var(--color4, #b9dcff)" d="M34.4 11.842c0 2.133-1.849 3.867-4.133 3.867-2.282 0-4.132-1.732-4.132-3.867 0 2.135-1.851 3.867-4.133 3.867s-4.133-1.732-4.133-3.867c0 2.135-1.851 3.867-4.133 3.867s-4.133-1.732-4.133-3.867c-0.003 2.121-1.869 3.867-4.132 3.867-2.26 0-4.13-1.744-4.133-3.867-0.005-3.38-0.004-3.177 0.025-3.308h33.016c0.035 0.154 0.025-0.056 0.025 3.308z"></path>
<path fill="#fff" style="fill: var(--color6, #fff)" d="M29.639 3.383c-7.239-0.932-14.544 0.264-20.453 4.428-0.64 0.452-1.437 0.722-2.296 0.722-0.004 0-0.009 0-0.013-0h-5.517c0.035-0.151-0.203 0.385 3.383-7.357 0.181-0.39 0.592-0.643 1.046-0.643h24.157c0.454 0 0.866 0.252 1.046 0.643l0.159 0.342c0.444 0.961-0.404 2.008-1.513 1.865z"></path>
<path fill="#007ffc" style="fill: var(--color7, #007ffc)" d="M33.26 18.067v11.267c0 1.47-1.278 2.667-2.851 2.667h-25.084c-1.572 0-2.85-1.196-2.85-2.667v-11.267c0-0.294 0.255-0.533 0.57-0.533s0.571 0.239 0.571 0.533v11.267c0 0.882 0.767 1.6 1.71 1.6h6.199v-9c0-1.47 1.279-2.667 2.851-2.667h6.984c1.572 0 2.85 1.196 2.85 2.667v6.867c0 0.294-0.255 0.533-0.569 0.533-0.316 0-0.571-0.239-0.571-0.533v-6.867c0-0.882-0.767-1.6-1.71-1.6h-6.984c-0.942 0-1.71 0.718-1.71 1.6v9h4.632v-8.4c0-0.294 0.255-0.533 0.57-0.533s0.571 0.239 0.571 0.533v8.4h11.971c0.943 0 1.71-0.717 1.71-1.6v-11.267c0-0.294 0.256-0.533 0.571-0.533s0.57 0.239 0.57 0.533zM4.471 8.533c0 0.294 0.255 0.533 0.57 0.533 31.018 0 29.48 0.052 29.707-0.111 0.114-0.081 0.194-0.204 0.217-0.345l0-0.003c0.032-0.214 0.236 0.313-3.747-8.286-0.095-0.192-0.29-0.321-0.514-0.321-0.003 0-0.006 0-0.009 0h-25.655c-0.003-0-0.006-0-0.009-0-0.225 0-0.419 0.129-0.513 0.318l-0.002 0.003-3.705 8c-0.065 0.142-0.047-0.083-0.047 3.521 0.004 2.427 2.114 4.4 4.702 4.4 1.78 0 3.334-0.933 4.133-2.304 1.783 3.066 6.48 3.069 8.267 0.002 1.786 3.065 6.481 3.066 8.267 0 0.798 1.37 2.351 2.302 4.133 2.302 2.593 0 4.703-1.974 4.703-4.4 0-0.295-0.255-0.533-0.57-0.533s-0.571 0.238-0.571 0.533c0 1.837-1.598 3.333-3.563 3.333s-3.564-1.496-3.564-3.333c0-0.295-0.255-0.533-0.57-0.533s-0.57 0.238-0.57 0.533c0 1.837-1.599 3.333-3.564 3.333s-3.563-1.496-3.563-3.333c0-0.295-0.255-0.533-0.571-0.533s-0.57 0.238-0.57 0.533c0 1.837-1.598 3.333-3.564 3.333-1.92 0-3.563-1.444-3.563-3.36 0-0.295-0.255-0.533-0.57-0.533s-0.571 0.238-0.571 0.533c0 1.899-1.631 3.36-3.563 3.36-1.962 0-3.56-1.496-3.564-3.333v-3.199l3.511-7.576h24.906l3.212 6.933h-28.492c-0.315 0-0.57 0.239-0.57 0.533z"></path>
</symbol>
<symbol id="icon-building-green" viewBox="0 0 36 32">
<path fill="#e1f4f5" style="fill: var(--color8, #e1f4f5)" d="M32.691 11.842v17.492c0 1.178-1.022 2.133-2.281 2.133h-25.084c-1.259 0-2.28-0.956-2.28-2.133 0-16.537-0.001-13.439 0.005-17.492h29.64z"></path>
<path fill="#caeff2" style="fill: var(--color9, #caeff2)" d="M32.691 11.842v4.039c0 0.875-0.749 1.599-1.684 1.603h-26.279c-0.933-0.004-1.683-0.729-1.683-1.603 0-1.165 0-0.361 0.005-4.039h29.64z"></path>
<path fill="#f4feff" style="fill: var(--color10, #f4feff)" d="M23.64 21.933v9.533h-11.544v-9.533c0-1.178 1.021-2.133 2.28-2.133h6.984c1.259 0 2.28 0.956 2.28 2.133z"></path>
<path fill="#caeff2" style="fill: var(--color9, #caeff2)" d="M34.4 11.842c0 2.133-1.849 3.867-4.133 3.867-2.282 0-4.132-1.732-4.132-3.867 0 2.135-1.851 3.867-4.133 3.867s-4.133-1.732-4.133-3.867c0 2.135-1.85 3.867-4.133 3.867-2.282 0-4.133-1.732-4.133-3.867-0.003 2.121-1.869 3.867-4.132 3.867-2.26 0-4.13-1.744-4.133-3.867 0-3.361-0.009-3.154 0.025-3.308 0.035-0.151-0.203 0.385 3.383-7.357 0.181-0.39 0.592-0.643 1.046-0.643h24.157c0.453 0 0.865 0.252 1.046 0.643 3.588 7.748 3.348 7.206 3.383 7.357 0.035 0.154 0.025-0.056 0.025 3.308z"></path>
<path fill="#caeff2" style="fill: var(--color9, #caeff2)" d="M34.4 11.842c0 2.133-1.849 3.867-4.133 3.867-2.282 0-4.132-1.732-4.132-3.867 0 2.135-1.851 3.867-4.133 3.867s-4.133-1.732-4.133-3.867c0 2.135-1.851 3.867-4.133 3.867s-4.133-1.732-4.133-3.867c-0.003 2.121-1.869 3.867-4.132 3.867-2.26 0-4.13-1.744-4.133-3.867-0.005-3.38-0.004-3.177 0.025-3.308h33.016c0.035 0.154 0.025-0.056 0.025 3.308z"></path>
<path fill="#fff" style="fill: var(--color6, #fff)" d="M29.639 3.383c-7.239-0.932-14.544 0.264-20.453 4.428-0.64 0.452-1.437 0.722-2.296 0.722-0.004 0-0.009 0-0.013-0h-5.517c0.035-0.151-0.203 0.385 3.383-7.357 0.181-0.39 0.592-0.643 1.046-0.643h24.157c0.454 0 0.866 0.252 1.046 0.643l0.159 0.342c0.444 0.961-0.404 2.008-1.513 1.865z"></path>
<path fill="#52c29d" style="fill: var(--color11, #52c29d)" d="M33.26 18.067v11.267c0 1.47-1.278 2.667-2.851 2.667h-25.084c-1.572 0-2.85-1.196-2.85-2.667v-11.267c0-0.294 0.255-0.533 0.57-0.533s0.571 0.239 0.571 0.533v11.267c0 0.882 0.767 1.6 1.71 1.6h6.199v-9c0-1.47 1.279-2.667 2.851-2.667h6.984c1.572 0 2.85 1.196 2.85 2.667v6.867c0 0.294-0.255 0.533-0.569 0.533-0.316 0-0.571-0.239-0.571-0.533v-6.867c0-0.882-0.767-1.6-1.71-1.6h-6.984c-0.942 0-1.71 0.718-1.71 1.6v9h4.632v-8.4c0-0.294 0.255-0.533 0.57-0.533s0.571 0.239 0.571 0.533v8.4h11.971c0.943 0 1.71-0.717 1.71-1.6v-11.267c0-0.294 0.256-0.533 0.571-0.533s0.57 0.239 0.57 0.533zM4.471 8.533c0 0.294 0.255 0.533 0.57 0.533 31.018 0 29.48 0.052 29.707-0.111 0.114-0.081 0.194-0.204 0.217-0.345l0-0.003c0.032-0.214 0.236 0.313-3.747-8.286-0.095-0.192-0.29-0.321-0.514-0.321-0.003 0-0.006 0-0.009 0h-25.655c-0.003-0-0.006-0-0.009-0-0.225 0-0.419 0.129-0.513 0.318l-0.002 0.003-3.705 8c-0.065 0.142-0.047-0.083-0.047 3.521 0.004 2.427 2.114 4.4 4.702 4.4 1.78 0 3.334-0.933 4.133-2.304 1.783 3.066 6.48 3.069 8.267 0.002 1.786 3.065 6.481 3.066 8.267 0 0.798 1.37 2.351 2.302 4.133 2.302 2.593 0 4.703-1.974 4.703-4.4 0-0.295-0.255-0.533-0.57-0.533s-0.571 0.238-0.571 0.533c0 1.837-1.598 3.333-3.563 3.333s-3.564-1.496-3.564-3.333c0-0.295-0.255-0.533-0.57-0.533s-0.57 0.238-0.57 0.533c0 1.837-1.599 3.333-3.564 3.333s-3.563-1.496-3.563-3.333c0-0.295-0.255-0.533-0.571-0.533s-0.57 0.238-0.57 0.533c0 1.837-1.598 3.333-3.564 3.333-1.92 0-3.563-1.444-3.563-3.36 0-0.295-0.255-0.533-0.57-0.533s-0.571 0.238-0.571 0.533c0 1.899-1.631 3.36-3.563 3.36-1.962 0-3.56-1.496-3.564-3.333v-3.199l3.511-7.576h24.906l3.212 6.933h-28.492c-0.315 0-0.57 0.239-0.57 0.533z"></path>
</symbol>
<symbol id="icon-megaphone-blue viewBox="0 0 36 32">
<path fill="#d1e7ff" style="fill: var(--color3, #d1e7ff)" d="M30.427 15.115c0.708 1.147-0.14 2.587-1.556 2.638-5.634 0.206-10.901 1.576-15.633 3.875l0.232-0.102-1.643 0.886c0 0.007-0.022-0.036 3.976 6.469 0.366 0.596 0.148 1.356-0.487 1.7l-1.295 0.7c-0.636 0.343-1.449 0.14-1.816-0.456l-3.988-6.462-0.648 0.35c-1.271 0.686-2.898 0.279-3.632-0.911l-2.991-4.845c-0.732-1.19-0.297-2.711 0.974-3.398l5.9-3.187c4.508-2.729 8.329-6.342 11.194-10.592 0.756-1.12 2.513-1.088 3.22 0.059l2.559 4.148c1.47-0.794 3.351-0.323 4.2 1.053s0.345 3.134-1.125 3.929l2.56 4.147z"></path>
<path fill="#d1e7ff" style="fill: var(--color3, #d1e7ff)" d="M28.993 7.039c0.849 1.375 0.345 3.134-1.125 3.929l-3.076-4.982c1.471-0.794 3.351-0.323 4.201 1.053z"></path>
<path fill="#e8f3ff" style="fill: var(--color5, #e8f3ff)" d="M22.234 1.838c0.157 0.248 0.25 0.549 0.25 0.872 0 0.361-0.116 0.696-0.314 0.967l0.003-0.005c-3.153 4.444-7.378 8.46-12.546 11.588l-6.913 3.733c-0.475 0.258-0.851 0.613-1.113 1.023l-0.656-1.061c-0.732-1.189-0.297-2.711 0.974-3.397l5.9-3.188c4.508-2.729 8.329-6.341 11.194-10.591 0.756-1.12 2.512-1.088 3.22 0.059z"></path>
<path fill="#b9dcff" style="fill: var(--color4, #b9dcff)" d="M7.82 12.372l5.65 9.156c-1.132 0.611-4.77 2.574-5.9 3.186-1.271 0.687-2.898 0.279-3.632-0.91l-2.991-4.846c-0.732-1.19-0.297-2.711 0.974-3.398l5.9-3.187z"></path>
<path fill="#d1e7ff" style="fill: var(--color3, #d1e7ff)" d="M9.609 15.271c-7.508 4.053-7.010 3.772-7.252 3.948-0.456 0.332-1.122 0.204-1.411-0.264-0.733-1.189-0.298-2.711 0.973-3.397l5.9-3.187 1.789 2.899z"></path>
<path fill="#b9dcff" style="fill: var(--color4, #b9dcff)" d="M12.902 24.163c-2.1 1.138-0.555 0.3-3.606 1.948l-1.079-1.748 3.61-1.949 1.076 1.749zM28.809 10.178c-0.244 0.312-0.56 0.584-0.942 0.789l-3.074-4.981c0.382-0.206 0.791-0.326 1.203-0.368l2.813 4.56z"></path>
<path fill="#007ffc" style="fill: var(--color7, #007ffc)" d="M28.65 11.13c2.305-1.76 1.508-5.243-1.372-5.964-0.285-0.075-0.612-0.118-0.95-0.118-0.465 0-0.91 0.082-1.323 0.232l0.027-0.009-2.288-3.708c-0.931-1.509-3.24-1.548-4.231-0.078-2.815 4.175-6.564 7.727-11.015 10.422-0.161 0.094-0.268 0.265-0.268 0.462 0 0.098 0.026 0.189 0.072 0.268l-0.001-0.003c0.024 0.042 3.813 6.182 3.839 6.222 0.163 0.265 0.524 0.356 0.806 0.203 0.176-0.090 0.294-0.269 0.294-0.477 0-0.103-0.029-0.199-0.079-0.28l0.001 0.002-3.554-5.759c4.244-2.654 8.004-6.169 10.903-10.471 0.519-0.771 1.724-0.747 2.21 0.040l8.194 13.276c0.486 0.788-0.098 1.776-1.067 1.812-5.725 0.208-11.076 1.6-15.884 3.936l0.235-0.103c-0.020 0.009-5.547 2.995-5.926 3.2-0.988 0.533-2.255 0.216-2.826-0.708l-2.99-4.845c-0.571-0.924-0.231-2.11 0.756-2.644l3.6-1.944c0.176-0.090 0.295-0.269 0.295-0.477 0-0.103-0.029-0.199-0.080-0.281l0.001 0.002c-0.111-0.167-0.299-0.276-0.512-0.276-0.108 0-0.209 0.028-0.297 0.077l0.003-0.002-3.6 1.944c-1.553 0.838-2.086 2.7-1.189 4.152l2.991 4.847c0.896 1.452 2.887 1.95 4.438 1.112l0.137-0.074 3.692 5.984c0.531 0.86 1.703 1.154 2.622 0.658l1.295-0.7c0.919-0.497 1.234-1.594 0.702-2.453l-2.615-4.242c-0.111-0.168-0.299-0.278-0.513-0.278-0.108 0-0.209 0.028-0.297 0.077l0.003-0.002c-0.176 0.090-0.295 0.269-0.295 0.477 0 0.103 0.029 0.199 0.080 0.281l-0.001-0.002 2.617 4.24c0.204 0.331 0.084 0.753-0.27 0.944l-1.295 0.7c-0.354 0.191-0.805 0.078-1.009-0.253l-3.693-5.983 4.729-2.554c4.425-2.159 9.603-3.505 15.074-3.705l0.068-0.002c1.86-0.068 2.973-1.961 2.044-3.467l-2.291-3.708zM28.481 7.315c0.583 0.945 0.373 2.117-0.433 2.84l-2.412-3.909c1.058-0.291 2.253 0.109 2.845 1.069zM34.257 4.859l-1.529 0.826c-0.085 0.047-0.186 0.075-0.293 0.075-0.214 0-0.402-0.109-0.512-0.275l-0.001-0.002c-0.049-0.079-0.078-0.175-0.078-0.278 0-0.208 0.119-0.388 0.292-0.476l0.003-0.001 1.527-0.825c0.085-0.047 0.186-0.075 0.294-0.075 0.214 0 0.402 0.109 0.511 0.275l0.001 0.002c0.049 0.079 0.079 0.176 0.079 0.279 0 0.208-0.119 0.387-0.292 0.476l-0.003 0.001zM27.686 1.71l0.372-1.3c0.084-0.295 0.408-0.469 0.724-0.391 0.315 0.080 0.501 0.382 0.418 0.676l-0.373 1.301c-0.084 0.293-0.407 0.469-0.724 0.391-0.315-0.080-0.501-0.382-0.418-0.677zM35.409 10.757c-0.078 0.239-0.299 0.409-0.559 0.409-0.004 0-0.008-0-0.011-0h0.001c-0.107 0-0.032 0.012-1.544-0.366-0.315-0.080-0.501-0.382-0.418-0.677 0.085-0.294 0.409-0.469 0.724-0.391l1.39 0.349c0.316 0.079 0.502 0.382 0.418 0.676z"></path>
</symbol>
<symbol id="icon-megaphone-green" viewBox="0 0 36 32">
<path fill="#e1f4f5" style="fill: var(--color8, #e1f4f5)" d="M30.427 15.115c0.708 1.147-0.14 2.587-1.556 2.638-5.634 0.206-10.901 1.576-15.633 3.875l0.232-0.102-1.643 0.886c0 0.007-0.022-0.036 3.976 6.469 0.366 0.596 0.148 1.356-0.487 1.7l-1.295 0.7c-0.636 0.343-1.449 0.14-1.816-0.456l-3.988-6.462-0.648 0.35c-1.271 0.686-2.898 0.279-3.632-0.911l-2.991-4.845c-0.732-1.19-0.297-2.711 0.974-3.398l5.9-3.187c4.508-2.729 8.329-6.342 11.194-10.592 0.756-1.12 2.513-1.088 3.22 0.059l2.559 4.148c1.47-0.794 3.351-0.323 4.2 1.053s0.345 3.134-1.125 3.929l2.56 4.147z"></path>
<path fill="#e1f4f5" style="fill: var(--color8, #e1f4f5)" d="M28.993 7.039c0.849 1.375 0.345 3.134-1.125 3.929l-3.076-4.982c1.471-0.794 3.351-0.323 4.201 1.053z"></path>
<path fill="#f4feff" style="fill: var(--color10, #f4feff)" d="M22.234 1.838c0.157 0.248 0.25 0.549 0.25 0.872 0 0.361-0.116 0.696-0.314 0.967l0.003-0.005c-3.153 4.444-7.378 8.46-12.546 11.588l-6.913 3.733c-0.475 0.258-0.851 0.613-1.113 1.023l-0.656-1.061c-0.732-1.189-0.297-2.711 0.974-3.397l5.9-3.188c4.508-2.729 8.329-6.341 11.194-10.591 0.756-1.12 2.512-1.088 3.22 0.059z"></path>
<path fill="#caeff2" style="fill: var(--color9, #caeff2)" d="M7.82 12.372l5.65 9.156c-1.132 0.611-4.77 2.574-5.9 3.186-1.271 0.687-2.898 0.279-3.632-0.91l-2.991-4.846c-0.732-1.19-0.297-2.711 0.974-3.398l5.9-3.187z"></path>
<path fill="#e1f4f5" style="fill: var(--color8, #e1f4f5)" d="M9.609 15.271c-7.508 4.053-7.010 3.772-7.252 3.948-0.456 0.332-1.122 0.204-1.411-0.264-0.733-1.189-0.298-2.711 0.973-3.397l5.9-3.187 1.789 2.899z"></path>
<path fill="#caeff2" style="fill: var(--color9, #caeff2)" d="M12.902 24.163c-2.1 1.138-0.555 0.3-3.606 1.948l-1.079-1.748 3.61-1.949 1.076 1.749zM28.809 10.178c-0.244 0.312-0.56 0.584-0.942 0.789l-3.074-4.981c0.382-0.206 0.791-0.326 1.203-0.368l2.813 4.56z"></path>
<path fill="#52c29d" style="fill: var(--color11, #52c29d)" d="M28.65 11.13c2.305-1.76 1.508-5.243-1.372-5.964-0.285-0.075-0.612-0.118-0.95-0.118-0.465 0-0.91 0.082-1.323 0.232l0.027-0.009-2.288-3.708c-0.931-1.509-3.24-1.548-4.231-0.078-2.815 4.175-6.564 7.727-11.015 10.422-0.161 0.094-0.268 0.265-0.268 0.462 0 0.098 0.026 0.189 0.072 0.268l-0.001-0.003c0.024 0.042 3.813 6.182 3.839 6.222 0.163 0.265 0.524 0.356 0.806 0.203 0.176-0.090 0.294-0.269 0.294-0.477 0-0.103-0.029-0.199-0.079-0.28l0.001 0.002-3.554-5.759c4.244-2.654 8.004-6.169 10.903-10.471 0.519-0.771 1.724-0.747 2.21 0.040l8.194 13.276c0.486 0.788-0.098 1.776-1.067 1.812-5.725 0.208-11.076 1.6-15.884 3.936l0.235-0.103c-0.020 0.009-5.547 2.995-5.926 3.2-0.988 0.533-2.255 0.216-2.826-0.708l-2.99-4.845c-0.571-0.924-0.231-2.11 0.756-2.644l3.6-1.944c0.176-0.090 0.295-0.269 0.295-0.477 0-0.103-0.029-0.199-0.080-0.281l0.001 0.002c-0.111-0.167-0.299-0.276-0.512-0.276-0.108 0-0.209 0.028-0.297 0.077l0.003-0.002-3.6 1.944c-1.553 0.838-2.086 2.7-1.189 4.152l2.991 4.847c0.896 1.452 2.887 1.95 4.438 1.112l0.137-0.074 3.692 5.984c0.531 0.86 1.703 1.154 2.622 0.658l1.295-0.7c0.919-0.497 1.234-1.594 0.702-2.453l-2.615-4.242c-0.111-0.168-0.299-0.278-0.513-0.278-0.108 0-0.209 0.028-0.297 0.077l0.003-0.002c-0.176 0.090-0.295 0.269-0.295 0.477 0 0.103 0.029 0.199 0.080 0.281l-0.001-0.002 2.617 4.24c0.204 0.331 0.084 0.753-0.27 0.944l-1.295 0.7c-0.354 0.191-0.805 0.078-1.009-0.253l-3.693-5.983 4.729-2.554c4.425-2.159 9.603-3.505 15.074-3.705l0.068-0.002c1.86-0.068 2.973-1.961 2.044-3.467l-2.291-3.708zM28.481 7.315c0.583 0.945 0.373 2.117-0.433 2.84l-2.412-3.909c1.058-0.291 2.253 0.109 2.845 1.069zM34.257 4.859l-1.529 0.826c-0.085 0.047-0.186 0.075-0.293 0.075-0.214 0-0.402-0.109-0.512-0.275l-0.001-0.002c-0.049-0.079-0.078-0.175-0.078-0.278 0-0.208 0.119-0.388 0.292-0.476l0.003-0.001 1.527-0.825c0.085-0.047 0.186-0.075 0.294-0.075 0.214 0 0.402 0.109 0.511 0.275l0.001 0.002c0.049 0.079 0.079 0.176 0.079 0.279 0 0.208-0.119 0.387-0.292 0.476l-0.003 0.001zM27.686 1.71l0.372-1.3c0.084-0.295 0.408-0.469 0.724-0.391 0.315 0.080 0.501 0.382 0.418 0.676l-0.373 1.301c-0.084 0.293-0.407 0.469-0.724 0.391-0.315-0.080-0.501-0.382-0.418-0.677zM35.409 10.757c-0.078 0.239-0.299 0.409-0.559 0.409-0.004 0-0.008-0-0.011-0h0.001c-0.107 0-0.032 0.012-1.544-0.366-0.315-0.080-0.501-0.382-0.418-0.677 0.085-0.294 0.409-0.469 0.724-0.391l1.39 0.349c0.316 0.079 0.502 0.382 0.418 0.676z"></path>
</symbol>
<symbol id="icon-phone-blue" viewBox="0 0 22 32">
<path fill="#d1e7ff" style="fill: var(--color3, #d1e7ff)" d="M18.837 0.533c1.26 0 2.281 0.956 2.281 2.133v26.667c0 1.178-1.021 2.133-2.281 2.133h-15.677c-1.258 0-2.28-0.956-2.28-2.133v-26.667c0-1.178 1.021-2.133 2.28-2.133h15.677z"></path>
<path fill="#b9dcff" style="fill: var(--color4, #b9dcff)" d="M14.585 11.981c0.546 0 1.004 0.385 1.062 0.892l0.763 6.551c0.069 0.592-0.427 1.108-1.062 1.108h-8.697c-0.636 0-1.132-0.516-1.063-1.108l0.763-6.551c0.060-0.508 0.516-0.892 1.063-0.892h7.172z"></path>
<path fill="#e8f3ff" style="fill: var(--color5, #e8f3ff)" d="M18.946 0.536c1.834 0.080 1.736 2.664-0.1 2.664h-7.42c-4.251 0-7.697 3.224-7.697 7.2v21.067h-0.569c-1.261 0-2.281-0.955-2.281-2.133v-26.667c0-1.178 1.020-2.133 2.28-2.133 0.103 0 15.702 0 15.786 0.003z"></path>
<path fill="#b9dcff" style="fill: var(--color4, #b9dcff)" d="M21.118 26.8v2.533c0 1.178-1.021 2.133-2.281 2.133h-15.677c-1.258 0-2.28-0.956-2.28-2.133v-2.533h20.238z"></path>
<path fill="#d1e7ff" style="fill: var(--color3, #d1e7ff)" d="M3.73 26.8v2.541c0 1.738-2.85 1.826-2.85-0.008v-2.533h2.85zM14.585 13.981c-3.453 0-6.276 2.432-6.64 5.564-0.066 0.562-0.572 0.988-1.177 0.988h-0.117c-0.636 0-1.132-0.516-1.063-1.108l0.763-6.551c0.060-0.508 0.516-0.892 1.063-0.892h7.172c0.545 0 1.004 0.384 1.062 0.892 0.069 0.593-0.427 1.108-1.062 1.108z"></path>
<path fill="#007ffc" style="fill: var(--color7, #007ffc)" d="M18.837 0h-15.677c-1.572 0-2.851 1.196-2.851 2.667v26.667c0 1.47 1.279 2.667 2.851 2.667h15.677c1.572 0 2.851-1.196 2.851-2.667v-26.667c0-1.47-1.278-2.667-2.851-2.667zM18.837 30.933h-15.677c-0.942 0-1.71-0.717-1.71-1.6v-26.667c0-0.883 0.767-1.6 1.71-1.6h15.677c0.943 0 1.71 0.717 1.71 1.6v23.6h-16.318c-0.316 0-0.571 0.239-0.571 0.533s0.255 0.533 0.571 0.533h16.318v2c0 0.882-0.767 1.6-1.71 1.6zM12.282 29c0 0.294-0.255 0.533-0.571 0.533h-1.425c-0.315 0-0.57-0.239-0.57-0.533s0.255-0.533 0.57-0.533h1.425c0.316 0 0.571 0.239 0.571 0.533zM6.651 21.067h8.697c0.975 0 1.734-0.793 1.629-1.7l-0.763-6.551c-0.091-0.78-0.791-1.368-1.629-1.368h-0.528v-0.987c0-1.578-1.372-2.861-3.058-2.861s-3.058 1.284-3.058 2.861v0.987h-0.528c-0.838 0-1.539 0.588-1.629 1.368l-0.763 6.551c-0.106 0.907 0.655 1.7 1.629 1.7zM6.155 19.483l0.763-6.551c0.035-0.237 0.238-0.417 0.482-0.417 0.005 0 0.010 0 0.015 0l-0.001-0h0.527v0.832c0 0.295 0.255 0.533 0.571 0.533s0.57-0.238 0.57-0.533v-2.884c0-0.989 0.86-1.795 1.918-1.795s1.917 0.804 1.917 1.795v0.987h-2.466c-0.315 0-0.57 0.239-0.57 0.533s0.255 0.533 0.57 0.533h2.466v0.832c0 0.295 0.255 0.533 0.571 0.533s0.57-0.238 0.57-0.533v-0.832h0.528c0.255 0 0.468 0.18 0.496 0.416l0.762 6.552c0.033 0.276-0.197 0.517-0.496 0.517h-8.696c-0.297 0-0.528-0.24-0.496-0.517z"></path>
</symbol>
<symbol id="icon-phone-green" viewBox="0 0 22 32">
<path fill="#e1f4f5" style="fill: var(--color8, #e1f4f5)" d="M18.837 0.533c1.26 0 2.281 0.956 2.281 2.133v26.667c0 1.178-1.021 2.133-2.281 2.133h-15.677c-1.258 0-2.28-0.956-2.28-2.133v-26.667c0-1.178 1.021-2.133 2.28-2.133h15.677z"></path>
<path fill="#caeff2" style="fill: var(--color9, #caeff2)" d="M14.585 11.981c0.546 0 1.004 0.385 1.062 0.892l0.763 6.551c0.069 0.592-0.427 1.108-1.062 1.108h-8.697c-0.636 0-1.132-0.516-1.063-1.108l0.763-6.551c0.060-0.508 0.516-0.892 1.063-0.892h7.172z"></path>
<path fill="#f4feff" style="fill: var(--color10, #f4feff)" d="M18.946 0.536c1.834 0.080 1.736 2.664-0.1 2.664h-7.42c-4.251 0-7.697 3.224-7.697 7.2v21.067h-0.569c-1.261 0-2.281-0.955-2.281-2.133v-26.667c0-1.178 1.020-2.133 2.28-2.133 0.103 0 15.702 0 15.786 0.003z"></path>
<path fill="#caeff2" style="fill: var(--color9, #caeff2)" d="M21.118 26.8v2.533c0 1.178-1.021 2.133-2.281 2.133h-15.677c-1.258 0-2.28-0.956-2.28-2.133v-2.533h20.238z"></path>
<path fill="#e1f4f5" style="fill: var(--color8, #e1f4f5)" d="M3.73 26.8v2.541c0 1.738-2.85 1.826-2.85-0.008v-2.533h2.85zM14.585 13.981c-3.453 0-6.276 2.432-6.64 5.564-0.066 0.562-0.572 0.988-1.177 0.988h-0.117c-0.636 0-1.132-0.516-1.063-1.108l0.763-6.551c0.060-0.508 0.516-0.892 1.063-0.892h7.172c0.545 0 1.004 0.384 1.062 0.892 0.069 0.593-0.427 1.108-1.062 1.108z"></path>
<path fill="#52c29d" style="fill: var(--color11, #52c29d)" d="M18.837 0h-15.677c-1.572 0-2.851 1.196-2.851 2.667v26.667c0 1.47 1.279 2.667 2.851 2.667h15.677c1.572 0 2.851-1.196 2.851-2.667v-26.667c0-1.47-1.278-2.667-2.851-2.667zM18.837 30.933h-15.677c-0.942 0-1.71-0.717-1.71-1.6v-26.667c0-0.883 0.767-1.6 1.71-1.6h15.677c0.943 0 1.71 0.717 1.71 1.6v23.6h-16.318c-0.316 0-0.571 0.239-0.571 0.533s0.255 0.533 0.571 0.533h16.318v2c0 0.883-0.767 1.6-1.71 1.6zM12.282 29c0 0.294-0.255 0.533-0.571 0.533h-1.425c-0.315 0-0.57-0.239-0.57-0.533s0.255-0.533 0.57-0.533h1.425c0.316 0 0.571 0.239 0.571 0.533zM6.651 21.067h8.697c0.975 0 1.734-0.793 1.629-1.7l-0.763-6.551c-0.091-0.78-0.791-1.368-1.629-1.368h-0.528v-0.987c0-1.578-1.372-2.861-3.058-2.861s-3.058 1.284-3.058 2.861v0.987h-0.528c-0.838 0-1.539 0.588-1.629 1.368l-0.763 6.551c-0.106 0.907 0.655 1.7 1.629 1.7zM6.155 19.483l0.763-6.551c0.035-0.237 0.238-0.417 0.482-0.417 0.005 0 0.010 0 0.015 0l-0.001-0h0.527v0.832c0 0.295 0.255 0.533 0.571 0.533s0.57-0.238 0.57-0.533v-2.884c0-0.989 0.86-1.795 1.918-1.795s1.917 0.804 1.917 1.795v0.987h-2.466c-0.315 0-0.57 0.239-0.57 0.533s0.255 0.533 0.57 0.533h2.466v0.832c0 0.295 0.255 0.533 0.571 0.533s0.57-0.238 0.57-0.533v-0.832h0.528c0.255 0 0.468 0.18 0.496 0.416l0.762 6.552c0.033 0.276-0.197 0.517-0.496 0.517h-8.696c-0.297 0-0.528-0.24-0.496-0.517z"></path>
</symbol>
</defs>
</svg>
